# xmcd
#
# Track frame offsets: 
#        150
#        14595
#        35127
#        67914
#        82430
#        95086
#        108803
#        123987
#        140230
#        154050
#        165488
#
# Disc length: 2391 seconds
#
# Revision: 0
# Processed by: cddbd v1.5.1PL2 Copyright (c) Steve Scherf et al.
# Submitted via: ExactAudioCopy v0.95b3
#
DISCID=9909550b
DTITLE=Whitey Conwell - Stay Tuned
DYEAR=1999
DGENRE=Blues
TTITLE0=I'm Going Down
TTITLE1=Carve In Stone
TTITLE2=Talking In Your Sleep
TTITLE3=Daddy Don't Go for That
TTITLE4=Blues Is Like An Army
TTITLE5=It's My Life
TTITLE6=Louisiana Love
TTITLE7=Tell Me Now Baby
TTITLE8=You Drink Too Much
TTITLE9=You Put A Hurting On Me
TTITLE10=I Got It
EXTD=
EXTT0=
EXTT1=
EXTT2=
EXTT3=
EXTT4=
EXTT5=
EXTT6=
EXTT7=
EXTT8=
EXTT9=
EXTT10=
PLAYORDER=
